<svg width="415" height="90" xmlns="http://www.w3.org/2000/svg" xmlns:xlink="http://www.w3.org/1999/xlink"><g class="layer"><rect fill="#fff" height="85.84" rx="21" ry="21" stroke="#000" stroke-dasharray="null" stroke-linecap="null" stroke-linejoin="null" stroke-width="4" width="411.05" x="1.97" y="2.33"/><path d="M362.77 11.11c-28.52 8.48 45.94 59.29 48.45 22.72 2.5-36.56-19.93-31.2-48.45-22.72z" fill="#f6e464"/><text font-family="-apple-system, BlinkMacSystemFont, Segoe UI, Roboto, Helvetica, Arial, sans-serif, Apple Color Emoji,Segoe UI Emoji,Segoe UI Symbol" font-size="29" font-weight="bold" stroke-dasharray="null" stroke-linecap="null" stroke-linejoin="null" stroke-width="0" text-anchor="middle" transform="matrix(1.10896 0 0 1.13976 -8.95 -4.47)" x="358.24" y="35.24">JS</text><text font-family="-apple-system, BlinkMacSystemFont, Segoe UI, Roboto, Helvetica, Arial, sans-serif, Apple Color Emoji,Segoe UI Emoji,Segoe UI Symbol" font-size="29" font-weight="bold" stroke-dasharray="null" stroke-linecap="null" stroke-linejoin="null" stroke-width="0" text-anchor="middle" transform="matrix(1.10896 0 0 1.13976 -8.95 -4.47)" x="283.99" y="57.18">ölçünleri</text><path d="M205.3 165.13h154.8v15.2H205.3z"/><circle cx="207.54" cy="43.83" fill="transparent" r="22.75" stroke="#bcbcbc" stroke-linecap="null" stroke-linejoin="null" stroke-width="2"/><circle cx="152.31" cy="43.83" fill="transparent" r="22.75" stroke="#bcbcbc" stroke-linecap="null" stroke-linejoin="null" stroke-width="2"/><circle cx="97.18" cy="43.69" fill="transparent" r="22.75" stroke="#bcbcbc" stroke-linecap="null" stroke-linejoin="null" stroke-width="2"/><rect fill="#999" height="2.23" rx="1" ry="1" transform="rotate(90 97.16 43.7)" width="47.29" x="73.51" y="42.58"/><rect fill="#999" height="2.23" rx="1" ry="1" transform="rotate(90 207.58 43.9)" width="47.29" x="183.93" y="42.79"/><rect fill="#999" height="2.23" rx="1" ry="1" transform="rotate(90 152.42 43.8)" width="47.29" x="128.77" y="42.69"/><rect fill="#999" height="2.23" rx="1" ry="1" width="211.92" x="18.12" y="42.6"/><rect fill="#999" height="2.23" rx="1" ry="1" transform="rotate(90 42 43.87)" width="47.29" x="18.35" y="42.76"/><use transform="matrix(.8 0 0 .8 .8 .8)" x="-52.58" xlink:href="#a" y="9.65"/></g><symbol fill="transparent" id="a" stroke="#000" stroke-linecap="round" stroke-width="8" viewBox="0 0 870 270" xmlns="http://www.w3.org/2000/svg"><path d="M125 149a17 17 1 1 1 .01 0m0 28v13m-45-58h-13m103 0h13m-58-45V74m0-27a85 85 0 1 0 .1 0m207 170v-68a17 17 1 1 1 .01 0m0-34V47m-85 85a85 85 0 1 1 170 0m37 85v-85a85 85 0 0 1 170 0v85m-85-68a17 17 1 1 1 .01 0m-45-17h-13m103 0h13m-58-45V74m207 75a17 17 1 1 1 .01 0m20-17h65m0 0a85 85 0 1 1-28-63"/></symbol></svg>