<svg width="390" height="90" xmlns="http://www.w3.org/2000/svg" xmlns:xlink="http://www.w3.org/1999/xlink"><rect fill="#fff" height="85.84" rx="21" ry="21" stroke="#000" stroke-dasharray="null" stroke-linecap="null" stroke-linejoin="null" stroke-width="4" width="385.6" x="2.22" y="2.08"/><path d="M338.33 10.91c-28.52 8.48 44.69 59.54 47.2 22.98 2.5-36.57-18.68-31.46-47.2-22.98z" fill="#f6e464"/><text font-family="-apple-system, BlinkMacSystemFont, Segoe UI, Roboto, Helvetica, Arial, sans-serif, Apple Color Emoji,Segoe UI Emoji,Segoe UI Symbol" font-size="29" font-weight="bold" stroke-dasharray="null" stroke-linecap="null" stroke-linejoin="null" stroke-width="0" text-anchor="middle" transform="matrix(1.10896 0 0 1.13976 -8.95 -4.47)" x="336.19" y="35.07">JS</text><text font-family="-apple-system, BlinkMacSystemFont, Segoe UI, Roboto, Helvetica, Arial, sans-serif, Apple Color Emoji,Segoe UI Emoji,Segoe UI Symbol" font-size="29" font-weight="bold" stroke-dasharray="null" stroke-linecap="null" stroke-linejoin="null" stroke-width="0" text-anchor="middle" transform="matrix(1.10896 0 0 1.13976 -8.95 -4.47)" x="281.68" y="59.2">ölçünleri</text><circle cx="204.54" cy="44.08" fill="transparent" r="22.75" stroke="#bcbcbc" stroke-linecap="null" stroke-linejoin="null" stroke-width="2"/><circle cx="149.31" cy="44.08" fill="transparent" r="22.75" stroke="#bcbcbc" stroke-linecap="null" stroke-linejoin="null" stroke-width="2"/><circle cx="94.18" cy="43.94" fill="transparent" r="22.75" stroke="#bcbcbc" stroke-linecap="null" stroke-linejoin="null" stroke-width="2"/><rect fill="#999" height="2.23" rx="1" ry="1" transform="rotate(90 94.16 43.95)" width="47.29" x="70.51" y="42.83"/><rect fill="#999" height="2.23" rx="1" ry="1" transform="rotate(90 204.58 44.16)" width="47.29" x="180.93" y="43.04"/><rect fill="#999" height="2.23" rx="1" ry="1" transform="rotate(90 149.42 44.05)" width="47.29" x="125.77" y="42.94"/><rect fill="#999" height="2.23" rx="1" ry="1" width="213.17" x="15.12" y="42.85"/><rect fill="#999" height="2.23" rx="1" ry="1" transform="rotate(90 39 44.12)" width="47.29" x="15.35" y="43.01"/><path d="M205.3 165.13h154.8v15.2H205.3z"/><use transform="matrix(.8 0 0 .8 .8 .8)" x="-44" xlink:href="#a" y="10"/><symbol fill="transparent" id="a" stroke="#000" stroke-linecap="round" stroke-width="8" viewBox="0 0 870 270" xmlns="http://www.w3.org/2000/svg"><path d="M125 149a17 17 1 1 1 .01 0m0 28v13m-45-58h-13m103 0h13m-58-45V74m0-27a85 85 0 1 0 .1 0m207 170v-68a17 17 1 1 1 .01 0m0-34V47m-85 85a85 85 0 1 1 170 0m37 85v-85a85 85 0 0 1 170 0v85m-85-68a17 17 1 1 1 .01 0m-45-17h-13m103 0h13m-58-45V74m207 75a17 17 1 1 1 .01 0m20-17h65m0 0a85 85 0 1 1-28-63"/></symbol></svg>